<mxfile host="app.diagrams.net" modified="2022-06-01T00:08:22.548Z" agent="5.0 (Macintosh; Intel Mac OS X 10_15_7) AppleWebKit/537.36 (KHTML, like Gecko) Chrome/101.0.4951.64 Safari/537.36" etag="fWvDVdB6vkWNZqgsHOU0" version="18.1.3" type="github">
  <diagram id="3228e29e-7158-1315-38df-8450db1d8a1d" name="Page-1">
    <mxGraphModel dx="1298" dy="1169" grid="0" gridSize="10" guides="1" tooltips="1" connect="1" arrows="1" fold="1" page="1" pageScale="1" pageWidth="600" pageHeight="470" background="#EFF1F3" math="0" shadow="0">
      <root>
        <mxCell id="0" />
        <mxCell id="1" parent="0" />
        <mxCell id="Zxyhw3o_makbFYxT9f12-7" value="" style="rounded=1;whiteSpace=wrap;html=1;dashed=1;strokeWidth=5;fillColor=none;strokeColor=default;" parent="1" vertex="1">
          <mxGeometry x="40" y="-334.5" width="530" height="174" as="geometry" />
        </mxCell>
        <mxCell id="Cvay9vzX4nYaMX1bIdTz-8" value="" style="shape=flexArrow;endArrow=classic;html=1;rounded=0;fontSize=20;fontColor=none;endWidth=31.333333333333332;endSize=8.446666666666667;width=20.666666666666668;noLabel=1;strokeColor=none;fillColor=#9AC7BF;" parent="1" edge="1">
          <mxGeometry width="50" height="50" relative="1" as="geometry">
            <mxPoint x="125.5" y="-405.5" as="sourcePoint" />
            <mxPoint x="125.5" y="-344.5" as="targetPoint" />
          </mxGeometry>
        </mxCell>
        <mxCell id="Cvay9vzX4nYaMX1bIdTz-32" value="" style="shape=image;verticalLabelPosition=bottom;verticalAlign=top;imageAspect=0;aspect=fixed;image=data:image/svg+xml,PHN2ZyB4bWxuczp4bGluaz0iaHR0cDovL3d3dy53My5vcmcvMTk5OS94bGluayIgeG1sbnM9Imh0dHA6Ly93d3cudzMub3JnLzIwMDAvc3ZnIiBoZWlnaHQ9IjIwMCIgd2lkdGg9IjIwMCIgdmVyc2lvbj0iMS4xIiB2aWV3Qm94PSIwIDAgMTAyNCAxMDI0IiBjbGFzcz0iaWNvbiI+PGRlZnM+PHN0eWxlIHR5cGU9InRleHQvY3NzIj5AZm9udC1mYWNlIHsgZm9udC1mYW1pbHk6IGZlZWRiYWNrLWljb25mb250OyBzcmM6IHVybCgiLy9hdC5hbGljZG4uY29tL3QvZm9udF8xMDMxMTU4X3U2OXc4eWh4ZHUud29mZjI/dD0xNjMwMDMzNzU5OTQ0IikgZm9ybWF0KCJ3b2ZmMiIpLCB1cmwoIi8vYXQuYWxpY2RuLmNvbS90L2ZvbnRfMTAzMTE1OF91Njl3OHloeGR1LndvZmY/dD0xNjMwMDMzNzU5OTQ0IikgZm9ybWF0KCJ3b2ZmIiksIHVybCgiLy9hdC5hbGljZG4uY29tL3QvZm9udF8xMDMxMTU4X3U2OXc4eWh4ZHUudHRmP3Q9MTYzMDAzMzc1OTk0NCIpIGZvcm1hdCgidHJ1ZXR5cGUiKTsgfSYjeGE7PC9zdHlsZT48L2RlZnM+PHBhdGggZmlsbD0iIzRBOTE5QiIgZD0iTTkyOCA0ODBhMzIgMzIgMCAwIDAgMC02NGgtOTZ2LTY0aDk2YTMyIDMyIDAgMCAwIDAtNjRoLTk2di0yOC44QTY3LjIgNjcuMiAwIDAgMCA3NjQuOCAxOTJINzM2Vjk2YTMyIDMyIDAgMCAwLTY0IDB2OTZoLTY0Vjk2YTMyIDMyIDAgMCAwLTY0IDB2OTZoLTY0Vjk2YTMyIDMyIDAgMCAwLTY0IDB2OTZoLTY0Vjk2YTMyIDMyIDAgMCAwLTY0IDB2OTZoLTI4LjhBNjcuMiA2Ny4yIDAgMCAwIDE5MiAyNTkuMlYyODhIOTZhMzIgMzIgMCAwIDAgMCA2NGg5NnY2NEg5NmEzMiAzMiAwIDAgMCAwIDY0aDk2djY0SDk2YTMyIDMyIDAgMCAwIDAgNjRoOTZ2NjRIOTZhMzIgMzIgMCAwIDAgMCA2NGg5NnYyOC44QTY3LjIgNjcuMiAwIDAgMCAyNTkuMiA4MzJIMjg4djk2YTMyIDMyIDAgMCAwIDY0IDB2LTk2aDY0djk2YTMyIDMyIDAgMCAwIDY0IDB2LTk2aDY0djk2YTMyIDMyIDAgMCAwIDY0IDB2LTk2aDY0djk2YTMyIDMyIDAgMCAwIDY0IDB2LTk2aDI4LjhhNjcuMiA2Ny4yIDAgMCAwIDY3LjItNjcuMlY3MzZoOTZhMzIgMzIgMCAwIDAgMC02NGgtOTZ2LTY0aDk2YTMyIDMyIDAgMCAwIDAtNjRoLTk2di02NGg5NnogbS0xOTIgMjI0YTMyIDMyIDAgMCAxLTMyIDMySDMyMGEzMiAzMiAwIDAgMS0zMi0zMlYzMjBhMzIgMzIgMCAwIDEgMzItMzJoMzg0YTMyIDMyIDAgMCAxIDMyIDMydjM4NHoiLz48cGF0aCBmaWxsPSIjNEE5MTlCIiBkPSJNMzg0IDM4NGwyNTYgMCAwIDI1Ni0yNTYgMCAwLTI1NloiLz48L3N2Zz4=" parent="1" vertex="1">
          <mxGeometry x="243.5" y="-152.5" width="107" height="107" as="geometry" />
        </mxCell>
        <mxCell id="Cvay9vzX4nYaMX1bIdTz-33" value="&lt;b&gt;&lt;font style=&quot;font-size: 20px;&quot;&gt;CPU&lt;/font&gt;&lt;/b&gt;" style="text;html=1;strokeColor=none;fillColor=none;align=center;verticalAlign=middle;whiteSpace=wrap;rounded=0;fontColor=#4A919B;" parent="1" vertex="1">
          <mxGeometry x="267" y="-45.5" width="60" height="30" as="geometry" />
        </mxCell>
        <mxCell id="Cvay9vzX4nYaMX1bIdTz-37" value="是否过审" style="text;html=1;strokeColor=none;fillColor=none;align=center;verticalAlign=middle;whiteSpace=wrap;rounded=0;fontSize=20;fontColor=#4A919B;" parent="1" vertex="1">
          <mxGeometry x="433" y="-443.5" width="85" height="30" as="geometry" />
        </mxCell>
        <mxCell id="Cvay9vzX4nYaMX1bIdTz-38" value="" style="shape=flexArrow;endArrow=classic;html=1;rounded=0;fontSize=20;fontColor=none;endWidth=31.333333333333332;endSize=8.446666666666667;width=20.666666666666668;noLabel=1;strokeColor=none;fillColor=#9AC7BF;" parent="1" edge="1">
          <mxGeometry width="50" height="50" relative="1" as="geometry">
            <mxPoint x="475.29" y="-346.5" as="sourcePoint" />
            <mxPoint x="475.29" y="-407.5" as="targetPoint" />
          </mxGeometry>
        </mxCell>
        <mxCell id="xXdTrD2StSvAxk5864eV-2" value="&lt;font style=&quot;font-size: 20px;&quot; color=&quot;#ffffff&quot;&gt;前置逻辑&lt;/font&gt;" style="rounded=1;whiteSpace=wrap;html=1;fillColor=#4A919B;strokeColor=none;" parent="1" vertex="1">
          <mxGeometry x="54.5" y="-273.25" width="120" height="60" as="geometry" />
        </mxCell>
        <mxCell id="xXdTrD2StSvAxk5864eV-3" value="" style="endArrow=classic;html=1;rounded=0;fontSize=20;fontColor=#FFFFFF;strokeWidth=5;dashed=1;strokeColor=#4A919B;" parent="1" edge="1">
          <mxGeometry width="50" height="50" relative="1" as="geometry">
            <mxPoint x="49" y="-196.5" as="sourcePoint" />
            <mxPoint x="562" y="-196.5" as="targetPoint" />
          </mxGeometry>
        </mxCell>
        <mxCell id="xXdTrD2StSvAxk5864eV-5" value="&lt;font color=&quot;#4a919b&quot;&gt;执行流程&lt;/font&gt;" style="text;html=1;strokeColor=none;fillColor=none;align=center;verticalAlign=middle;whiteSpace=wrap;rounded=0;fontSize=20;fontColor=#FFFFFF;" parent="1" vertex="1">
          <mxGeometry x="65.5" y="-191.5" width="89" height="31" as="geometry" />
        </mxCell>
        <mxCell id="xXdTrD2StSvAxk5864eV-7" value="" style="shape=image;verticalLabelPosition=bottom;verticalAlign=top;imageAspect=0;aspect=fixed;image=data:image/svg+xml,PHN2ZyB4bWxuczp4bGluaz0iaHR0cDovL3d3dy53My5vcmcvMTk5OS94bGluayIgeG1sbnM9Imh0dHA6Ly93d3cudzMub3JnLzIwMDAvc3ZnIiBoZWlnaHQ9IjIwMCIgd2lkdGg9IjIwMCIgdmVyc2lvbj0iMS4xIiB2aWV3Qm94PSIwIDAgMTAyNCAxMDI0IiBjbGFzcz0iaWNvbiI+PGRlZnM+PHN0eWxlIHR5cGU9InRleHQvY3NzIj5AZm9udC1mYWNlIHsgZm9udC1mYW1pbHk6IGZlZWRiYWNrLWljb25mb250OyBzcmM6IHVybCgiLy9hdC5hbGljZG4uY29tL3QvZm9udF8xMDMxMTU4X3U2OXc4eWh4ZHUud29mZjI/dD0xNjMwMDMzNzU5OTQ0IikgZm9ybWF0KCJ3b2ZmMiIpLCB1cmwoIi8vYXQuYWxpY2RuLmNvbS90L2ZvbnRfMTAzMTE1OF91Njl3OHloeGR1LndvZmY/dD0xNjMwMDMzNzU5OTQ0IikgZm9ybWF0KCJ3b2ZmIiksIHVybCgiLy9hdC5hbGljZG4uY29tL3QvZm9udF8xMDMxMTU4X3U2OXc4eWh4ZHUudHRmP3Q9MTYzMDAzMzc1OTk0NCIpIGZvcm1hdCgidHJ1ZXR5cGUiKTsgfSYjeGE7PC9zdHlsZT48L2RlZnM+PHBhdGggZmlsbD0iIzRBOTE5QiIgZD0iTTI3Ny4zMzMzMzMgODUzLjMzMzMzM2E5NC4wMzczMzMgOTQuMDM3MzMzIDAgMCAxLTkzLjg2NjY2Ni05My44NjY2NjZWMjY0LjUzMzMzM0E5NC4wMzczMzMgOTQuMDM3MzMzIDAgMCAxIDI3Ny4zMzMzMzMgMTcwLjY2NjY2N2gzODYuOTAxMzM0YzE1Ljc4NjY2Ny0wLjEyOCAzMC45MzMzMzMgNi4wMTYgNDIuMTU0NjY2IDE3LjA2NjY2NmwxMjYuNDY0IDEyNi40NjRhMjUuNiAyNS42IDAgMCAxIDcuNjggMTguNjAyNjY3djQyNi42NjY2NjdhOTQuMDM3MzMzIDk0LjAzNzMzMyAwIDAgMS05My44NjY2NjYgOTMuODY2NjY2aC00NjkuMzMzMzM0eiBtMC02MzEuNDY2NjY2YTQyLjY2NjY2NyA0Mi42NjY2NjcgMCAwIDAtNDIuNjY2NjY2IDQyLjY2NjY2NnY0OTQuOTMzMzM0YTQyLjY2NjY2NyA0Mi42NjY2NjcgMCAwIDAgNDIuNjY2NjY2IDQyLjY2NjY2Nmg0NjkuMzMzMzM0YTQyLjY2NjY2NyA0Mi42NjY2NjcgMCAwIDAgNDIuNjY2NjY2LTQyLjY2NjY2NlYzNDMuMzgxMzMzbC0xMTkuNDY2NjY2LTExOS40NjY2NjZhOC41MzMzMzMgOC41MzMzMzMgMCAwIDAtNS42MzItMi4wNDhIMjc3LjMzMzMzM3ogbTkyLjg0MjY2NyAxNzguNTZoLTM4LjkxMlYzNjQuMzczMzMzaDM4LjkxMnYzNi4wNTMzMzR6IG0tMzguOTEyIDE5Ljk2OGgzOC45MTJ2MTQyLjYzNDY2NmMwLjU5NzMzMyAxMy4zNTQ2NjctMC42NCAyNi43NTItMy42NjkzMzMgMzkuNzY1MzM0YTMyLjQyNjY2NyAzMi40MjY2NjcgMCAwIDEtMTQuMTIyNjY3IDE4LjA5MDY2NmMtOC4xMDY2NjcgNC42MDgtMTcuMzY1MzMzIDYuODI2NjY3LTI2LjcwOTMzMyA2LjQ4NTMzNC00LjE4MTMzMyAwLTguMzYyNjY3LTAuMzg0LTEyLjU0NC0xLjA2NjY2N0ExNjguMjc3MzMzIDE2OC4yNzczMzMgMCAwIDEgMjk4LjY2NjY2NyA2MjMuMjMybDYuODI2NjY2LTMzLjMyMjY2NyA1LjEyIDAuOTM4NjY3YzEuNTM2IDAuMjEzMzMzIDMuMDI5MzMzIDAuMzQxMzMzIDQuNTIyNjY3IDAuMzQxMzMzYTE2LjY0IDE2LjY0IDAgMCAwIDkuODEzMzMzLTIuNjAyNjY2IDEyLjIwMjY2NyAxMi4yMDI2NjcgMCAwIDAgNS4wMzQ2NjctNi4xNDRjMS4xOTQ2NjctNy4xNjggMS42MjEzMzMtMTQuNDIxMzMzIDEuMjgtMjEuNjMyVjQyMC4zOTQ2Njd6IG04NS42NzQ2NjcgMjAzLjIyMTMzM1Y0MjAuMzk0NjY3aDM2LjMwOTMzM3YyMS41ODkzMzNhNTQuNCA1NC40IDAgMCAxIDQ1Ljg2NjY2Ny0yNC45MTczMzNjMTYuODEwNjY3LTAuMTcwNjY3IDMyLjc2OCA3LjI1MzMzMyA0My41MiAyMC4wOTYgMTIuOCAxNS43ODY2NjcgMTkuMTU3MzMzIDM1Ljc1NDY2NyAxNy45MiA1Ni4wMjEzMzMgMS4yOCAyMC42NTA2NjctNS4xMiA0MS4wODgtMTguMDQ4IDU3LjMwMTMzM2E1Ni4yMzQ2NjcgNTYuMjM0NjY3IDAgMCAxLTQzLjY0OCAyMC40OCA1MC4xMzMzMzMgNTAuMTMzMzMzIDAgMCAxLTIyLjEwMTMzNC00Ljg2NGMtNy44OTMzMzMtNC4yNjY2NjctMTQuOTMzMzMzLTkuODk4NjY3LTIwLjkwNjY2Ni0xNi42NHY3NC4xNTQ2NjdoLTM4LjkxMnogbTQ3Ljk1NzMzMy0xNjQuNzM2YTQ5LjA2NjY2NyA0OS4wNjY2NjcgMCAwIDAtOS40NzIgMzIuNTk3MzMzYy0xLjAyNCAxMi45NzA2NjcgMi40MzIgMjUuOTQxMzMzIDkuODEzMzMzIDM2LjY5MzMzNGEzMC4wOCAzMC4wOCAwIDAgMCAyNC4wMjEzMzQgMTEuODE4NjY2IDI4LjAzMiAyOC4wMzIgMCAwIDAgMjIuNjEzMzMzLTEwLjgzNzMzM2M2LjkxMi0xMC41Mzg2NjcgMTAuMDY5MzMzLTIzLjEyNTMzMyA4Ljk2LTM1LjcxMmE1My4yNDggNTMuMjQ4IDAgMCAwLTkuMjU4NjY3LTM0LjM0NjY2NyAyOC43MTQ2NjcgMjguNzE0NjY3IDAgMCAwLTIzLjA0LTExLjI2NCAyOS44NjY2NjcgMjkuODY2NjY3IDAgMCAwLTIzLjYzNzMzMyAxMS4wNTA2Njd6IG0xMjkuOTIgMTIzLjIyMTMzM2gtMC4wNDI2NjdsMC4xMjgtNC43MzYgNDQuNTAxMzM0IDUuMjkwNjY3YTE1LjUzMDY2NyAxNS41MzA2NjcgMCAwIDAgNS4xMiAxMC43OTQ2NjcgMjkuNjUzMzMzIDI5LjY1MzMzMyAwIDAgMCAxNy40OTMzMzMgNC4xMzg2NjZjNy44OTMzMzMgMC40NjkzMzMgMTUuNzg2NjY3LTEuMTA5MzMzIDIyLjg2OTMzMy00LjYwOGExOC43NzMzMzMgMTguNzczMzMzIDAgMCAwIDcuNzIyNjY3LTkuODEzMzMzIDU4Ljg4IDU4Ljg4IDAgMCAwIDEuODM0NjY3LTE3Ljkydi0yMS41MDRhNTIuODY0IDUyLjg2NCAwIDAgMS00NC4wNzQ2NjcgMjMuODkzMzMzIDU0LjQgNTQuNCAwIDAgMS00Ny4wMTg2NjctMjUuMDQ1MzMzIDg1LjYzMiA4NS42MzIgMCAwIDEtMTMuNTY4LTQ5LjQwOCA4MS4xOTQ2NjcgODEuMTk0NjY3IDAgMCAxIDE3Ljc5Mi01Ni41NzYgNTcuNDcyIDU3LjQ3MiAwIDAgMSA0NC4yODgtMTkuNTQxMzMzYzE4LjA5MDY2Ny0wLjA4NTMzMyAzNC45ODY2NjcgOC45NiA0NS4wNTYgMjMuOTc4NjY2di0yMC42NTA2NjZoMzYuNTIyNjY3djEzMi4wOTZjMC41MTIgMTMuMTQxMzMzLTAuOTM4NjY3IDI2LjI0LTQuMjY2NjY3IDM4Ljk1NDY2Ni0yLjMwNCA3LjYzNzMzMy02LjQ0MjY2NyAxNC41OTItMTIuMDc0NjY2IDIwLjIyNC01Ljk3MzMzMyA1LjMzMzMzMy0xMy4wNTYgOS4zMDEzMzMtMjAuNzM2IDExLjU2MjY2N2ExMTAuOTMzMzMzIDExMC45MzMzMzMgMCAwIDEtMzIuODEwNjY3IDQuMTM4NjY3Yy0yNC45MTczMzMgMC00Mi42NjY2NjctNC4yNjY2NjctNTMuMDc3MzMzLTEyLjg4NTMzNGE0MC4xNDkzMzMgNDAuMTQ5MzMzIDAgMCAxLTE1LjY1ODY2Ny0zMi40MjY2NjZ6IG00My45ODkzMzMtMTI0LjMzMDY2NmE1MS4wMjkzMzMgNTEuMDI5MzMzIDAgMCAwLTkuMDAyNjY2IDMzLjE5NDY2NmMtMS4wMjQgMTIuMTE3MzMzIDIuMTc2IDI0LjIzNDY2NyA5LjA0NTMzMyAzNC4zMDRhMjguMTYgMjguMTYgMCAwIDAgMjIuNCAxMC45MjI2NjcgMzAuOTc2IDMwLjk3NiAwIDAgMCAyNC4xMDY2NjctMTEuMjIxMzMzIDQ4LjY0IDQ4LjY0IDAgMCAwIDkuODEzMzMzLTMzLjA2NjY2NyA1MS41NDEzMzMgNTEuNTQxMzMzIDAgMCAwLTkuMzg2NjY3LTMzLjk2MjY2NyAyOS45NTIgMjkuOTUyIDAgMCAwLTIzLjg5MzMzMy0xMS4wOTMzMzMgMjguNzU3MzMzIDI4Ljc1NzMzMyAwIDAgMC0yMy4wNCAxMC45MjI2Njd6Ii8+PC9zdmc+" parent="1" vertex="1">
          <mxGeometry x="181" y="-288.25" width="90" height="90" as="geometry" />
        </mxCell>
        <mxCell id="xXdTrD2StSvAxk5864eV-9" value="" style="shape=image;verticalLabelPosition=bottom;verticalAlign=top;imageAspect=0;aspect=fixed;image=data:image/svg+xml,PHN2ZyB4bWxuczp4bGluaz0iaHR0cDovL3d3dy53My5vcmcvMTk5OS94bGluayIgeG1sbnM9Imh0dHA6Ly93d3cudzMub3JnLzIwMDAvc3ZnIiBoZWlnaHQ9IjIwMCIgd2lkdGg9IjIwMCIgdmVyc2lvbj0iMS4xIiB2aWV3Qm94PSIwIDAgMTAyNCAxMDI0IiBjbGFzcz0iaWNvbiI+PGRlZnM+PHN0eWxlIHR5cGU9InRleHQvY3NzIj5AZm9udC1mYWNlIHsgZm9udC1mYW1pbHk6IGZlZWRiYWNrLWljb25mb250OyBzcmM6IHVybCgiLy9hdC5hbGljZG4uY29tL3QvZm9udF8xMDMxMTU4X3U2OXc4eWh4ZHUud29mZjI/dD0xNjMwMDMzNzU5OTQ0IikgZm9ybWF0KCJ3b2ZmMiIpLCB1cmwoIi8vYXQuYWxpY2RuLmNvbS90L2ZvbnRfMTAzMTE1OF91Njl3OHloeGR1LndvZmY/dD0xNjMwMDMzNzU5OTQ0IikgZm9ybWF0KCJ3b2ZmIiksIHVybCgiLy9hdC5hbGljZG4uY29tL3QvZm9udF8xMDMxMTU4X3U2OXc4eWh4ZHUudHRmP3Q9MTYzMDAzMzc1OTk0NCIpIGZvcm1hdCgidHJ1ZXR5cGUiKTsgfSYjeGE7PC9zdHlsZT48L2RlZnM+PHBhdGggZmlsbD0iIzRBOTE5QiIgZD0iTTI3Ny4zMzMzMzMgODUzLjMzMzMzM2E5NC4wMzczMzMgOTQuMDM3MzMzIDAgMCAxLTkzLjg2NjY2Ni05My44NjY2NjZWMjY0LjUzMzMzM0E5NC4wMzczMzMgOTQuMDM3MzMzIDAgMCAxIDI3Ny4zMzMzMzMgMTcwLjY2NjY2N2gzODYuOTAxMzM0YzE1Ljc4NjY2Ny0wLjEyOCAzMC45MzMzMzMgNi4wMTYgNDIuMTU0NjY2IDE3LjA2NjY2NmwxMjYuNDY0IDEyNi40NjRhMjUuNiAyNS42IDAgMCAxIDcuNjggMTguNjAyNjY3djQyNi42NjY2NjdhOTQuMDM3MzMzIDk0LjAzNzMzMyAwIDAgMS05My44NjY2NjYgOTMuODY2NjY2aC00NjkuMzMzMzM0eiBtMC02MzEuNDY2NjY2YTQyLjY2NjY2NyA0Mi42NjY2NjcgMCAwIDAtNDIuNjY2NjY2IDQyLjY2NjY2NnY0OTQuOTMzMzM0YTQyLjY2NjY2NyA0Mi42NjY2NjcgMCAwIDAgNDIuNjY2NjY2IDQyLjY2NjY2Nmg0NjkuMzMzMzM0YTQyLjY2NjY2NyA0Mi42NjY2NjcgMCAwIDAgNDIuNjY2NjY2LTQyLjY2NjY2NlYzNDMuMzgxMzMzbC0xMTkuNDY2NjY2LTExOS40NjY2NjZhOC41MzMzMzMgOC41MzMzMzMgMCAwIDAtNS42MzItMi4wNDhIMjc3LjMzMzMzM3ogbTkyLjg0MjY2NyAxNzguNTZoLTM4LjkxMlYzNjQuMzczMzMzaDM4LjkxMnYzNi4wNTMzMzR6IG0tMzguOTEyIDE5Ljk2OGgzOC45MTJ2MTQyLjYzNDY2NmMwLjU5NzMzMyAxMy4zNTQ2NjctMC42NCAyNi43NTItMy42NjkzMzMgMzkuNzY1MzM0YTMyLjQyNjY2NyAzMi40MjY2NjcgMCAwIDEtMTQuMTIyNjY3IDE4LjA5MDY2NmMtOC4xMDY2NjcgNC42MDgtMTcuMzY1MzMzIDYuODI2NjY3LTI2LjcwOTMzMyA2LjQ4NTMzNC00LjE4MTMzMyAwLTguMzYyNjY3LTAuMzg0LTEyLjU0NC0xLjA2NjY2N0ExNjguMjc3MzMzIDE2OC4yNzczMzMgMCAwIDEgMjk4LjY2NjY2NyA2MjMuMjMybDYuODI2NjY2LTMzLjMyMjY2NyA1LjEyIDAuOTM4NjY3YzEuNTM2IDAuMjEzMzMzIDMuMDI5MzMzIDAuMzQxMzMzIDQuNTIyNjY3IDAuMzQxMzMzYTE2LjY0IDE2LjY0IDAgMCAwIDkuODEzMzMzLTIuNjAyNjY2IDEyLjIwMjY2NyAxMi4yMDI2NjcgMCAwIDAgNS4wMzQ2NjctNi4xNDRjMS4xOTQ2NjctNy4xNjggMS42MjEzMzMtMTQuNDIxMzMzIDEuMjgtMjEuNjMyVjQyMC4zOTQ2Njd6IG04NS42NzQ2NjcgMjAzLjIyMTMzM1Y0MjAuMzk0NjY3aDM2LjMwOTMzM3YyMS41ODkzMzNhNTQuNCA1NC40IDAgMCAxIDQ1Ljg2NjY2Ny0yNC45MTczMzNjMTYuODEwNjY3LTAuMTcwNjY3IDMyLjc2OCA3LjI1MzMzMyA0My41MiAyMC4wOTYgMTIuOCAxNS43ODY2NjcgMTkuMTU3MzMzIDM1Ljc1NDY2NyAxNy45MiA1Ni4wMjEzMzMgMS4yOCAyMC42NTA2NjctNS4xMiA0MS4wODgtMTguMDQ4IDU3LjMwMTMzM2E1Ni4yMzQ2NjcgNTYuMjM0NjY3IDAgMCAxLTQzLjY0OCAyMC40OCA1MC4xMzMzMzMgNTAuMTMzMzMzIDAgMCAxLTIyLjEwMTMzNC00Ljg2NGMtNy44OTMzMzMtNC4yNjY2NjctMTQuOTMzMzMzLTkuODk4NjY3LTIwLjkwNjY2Ni0xNi42NHY3NC4xNTQ2NjdoLTM4LjkxMnogbTQ3Ljk1NzMzMy0xNjQuNzM2YTQ5LjA2NjY2NyA0OS4wNjY2NjcgMCAwIDAtOS40NzIgMzIuNTk3MzMzYy0xLjAyNCAxMi45NzA2NjcgMi40MzIgMjUuOTQxMzMzIDkuODEzMzMzIDM2LjY5MzMzNGEzMC4wOCAzMC4wOCAwIDAgMCAyNC4wMjEzMzQgMTEuODE4NjY2IDI4LjAzMiAyOC4wMzIgMCAwIDAgMjIuNjEzMzMzLTEwLjgzNzMzM2M2LjkxMi0xMC41Mzg2NjcgMTAuMDY5MzMzLTIzLjEyNTMzMyA4Ljk2LTM1LjcxMmE1My4yNDggNTMuMjQ4IDAgMCAwLTkuMjU4NjY3LTM0LjM0NjY2NyAyOC43MTQ2NjcgMjguNzE0NjY3IDAgMCAwLTIzLjA0LTExLjI2NCAyOS44NjY2NjcgMjkuODY2NjY3IDAgMCAwLTIzLjYzNzMzMyAxMS4wNTA2Njd6IG0xMjkuOTIgMTIzLjIyMTMzM2gtMC4wNDI2NjdsMC4xMjgtNC43MzYgNDQuNTAxMzM0IDUuMjkwNjY3YTE1LjUzMDY2NyAxNS41MzA2NjcgMCAwIDAgNS4xMiAxMC43OTQ2NjcgMjkuNjUzMzMzIDI5LjY1MzMzMyAwIDAgMCAxNy40OTMzMzMgNC4xMzg2NjZjNy44OTMzMzMgMC40NjkzMzMgMTUuNzg2NjY3LTEuMTA5MzMzIDIyLjg2OTMzMy00LjYwOGExOC43NzMzMzMgMTguNzczMzMzIDAgMCAwIDcuNzIyNjY3LTkuODEzMzMzIDU4Ljg4IDU4Ljg4IDAgMCAwIDEuODM0NjY3LTE3Ljkydi0yMS41MDRhNTIuODY0IDUyLjg2NCAwIDAgMS00NC4wNzQ2NjcgMjMuODkzMzMzIDU0LjQgNTQuNCAwIDAgMS00Ny4wMTg2NjctMjUuMDQ1MzMzIDg1LjYzMiA4NS42MzIgMCAwIDEtMTMuNTY4LTQ5LjQwOCA4MS4xOTQ2NjcgODEuMTk0NjY3IDAgMCAxIDE3Ljc5Mi01Ni41NzYgNTcuNDcyIDU3LjQ3MiAwIDAgMSA0NC4yODgtMTkuNTQxMzMzYzE4LjA5MDY2Ny0wLjA4NTMzMyAzNC45ODY2NjcgOC45NiA0NS4wNTYgMjMuOTc4NjY2di0yMC42NTA2NjZoMzYuNTIyNjY3djEzMi4wOTZjMC41MTIgMTMuMTQxMzMzLTAuOTM4NjY3IDI2LjI0LTQuMjY2NjY3IDM4Ljk1NDY2Ni0yLjMwNCA3LjYzNzMzMy02LjQ0MjY2NyAxNC41OTItMTIuMDc0NjY2IDIwLjIyNC01Ljk3MzMzMyA1LjMzMzMzMy0xMy4wNTYgOS4zMDEzMzMtMjAuNzM2IDExLjU2MjY2N2ExMTAuOTMzMzMzIDExMC45MzMzMzMgMCAwIDEtMzIuODEwNjY3IDQuMTM4NjY3Yy0yNC45MTczMzMgMC00Mi42NjY2NjctNC4yNjY2NjctNTMuMDc3MzMzLTEyLjg4NTMzNGE0MC4xNDkzMzMgNDAuMTQ5MzMzIDAgMCAxLTE1LjY1ODY2Ny0zMi40MjY2NjZ6IG00My45ODkzMzMtMTI0LjMzMDY2NmE1MS4wMjkzMzMgNTEuMDI5MzMzIDAgMCAwLTkuMDAyNjY2IDMzLjE5NDY2NmMtMS4wMjQgMTIuMTE3MzMzIDIuMTc2IDI0LjIzNDY2NyA5LjA0NTMzMyAzNC4zMDRhMjguMTYgMjguMTYgMCAwIDAgMjIuNCAxMC45MjI2NjcgMzAuOTc2IDMwLjk3NiAwIDAgMCAyNC4xMDY2NjctMTEuMjIxMzMzIDQ4LjY0IDQ4LjY0IDAgMCAwIDkuODEzMzMzLTMzLjA2NjY2NyA1MS41NDEzMzMgNTEuNTQxMzMzIDAgMCAwLTkuMzg2NjY3LTMzLjk2MjY2NyAyOS45NTIgMjkuOTUyIDAgMCAwLTIzLjg5MzMzMy0xMS4wOTMzMzMgMjguNzU3MzMzIDI4Ljc1NzMzMyAwIDAgMC0yMy4wNCAxMC45MjI2Njd6Ii8+PC9zdmc+" parent="1" vertex="1">
          <mxGeometry x="246" y="-288.25" width="90" height="90" as="geometry" />
        </mxCell>
        <mxCell id="xXdTrD2StSvAxk5864eV-10" value="" style="shape=image;verticalLabelPosition=bottom;verticalAlign=top;imageAspect=0;aspect=fixed;image=data:image/svg+xml,PHN2ZyB4bWxuczp4bGluaz0iaHR0cDovL3d3dy53My5vcmcvMTk5OS94bGluayIgeG1sbnM9Imh0dHA6Ly93d3cudzMub3JnLzIwMDAvc3ZnIiBoZWlnaHQ9IjIwMCIgd2lkdGg9IjIwMCIgdmVyc2lvbj0iMS4xIiB2aWV3Qm94PSIwIDAgMTAyNCAxMDI0IiBjbGFzcz0iaWNvbiI+PGRlZnM+PHN0eWxlIHR5cGU9InRleHQvY3NzIj5AZm9udC1mYWNlIHsgZm9udC1mYW1pbHk6IGZlZWRiYWNrLWljb25mb250OyBzcmM6IHVybCgiLy9hdC5hbGljZG4uY29tL3QvZm9udF8xMDMxMTU4X3U2OXc4eWh4ZHUud29mZjI/dD0xNjMwMDMzNzU5OTQ0IikgZm9ybWF0KCJ3b2ZmMiIpLCB1cmwoIi8vYXQuYWxpY2RuLmNvbS90L2ZvbnRfMTAzMTE1OF91Njl3OHloeGR1LndvZmY/dD0xNjMwMDMzNzU5OTQ0IikgZm9ybWF0KCJ3b2ZmIiksIHVybCgiLy9hdC5hbGljZG4uY29tL3QvZm9udF8xMDMxMTU4X3U2OXc4eWh4ZHUudHRmP3Q9MTYzMDAzMzc1OTk0NCIpIGZvcm1hdCgidHJ1ZXR5cGUiKTsgfSYjeGE7PC9zdHlsZT48L2RlZnM+PHBhdGggZmlsbD0iIzRBOTE5QiIgZD0iTTI3Ny4zMzMzMzMgODUzLjMzMzMzM2E5NC4wMzczMzMgOTQuMDM3MzMzIDAgMCAxLTkzLjg2NjY2Ni05My44NjY2NjZWMjY0LjUzMzMzM0E5NC4wMzczMzMgOTQuMDM3MzMzIDAgMCAxIDI3Ny4zMzMzMzMgMTcwLjY2NjY2N2gzODYuOTAxMzM0YzE1Ljc4NjY2Ny0wLjEyOCAzMC45MzMzMzMgNi4wMTYgNDIuMTU0NjY2IDE3LjA2NjY2NmwxMjYuNDY0IDEyNi40NjRhMjUuNiAyNS42IDAgMCAxIDcuNjggMTguNjAyNjY3djQyNi42NjY2NjdhOTQuMDM3MzMzIDk0LjAzNzMzMyAwIDAgMS05My44NjY2NjYgOTMuODY2NjY2aC00NjkuMzMzMzM0eiBtMC02MzEuNDY2NjY2YTQyLjY2NjY2NyA0Mi42NjY2NjcgMCAwIDAtNDIuNjY2NjY2IDQyLjY2NjY2NnY0OTQuOTMzMzM0YTQyLjY2NjY2NyA0Mi42NjY2NjcgMCAwIDAgNDIuNjY2NjY2IDQyLjY2NjY2Nmg0NjkuMzMzMzM0YTQyLjY2NjY2NyA0Mi42NjY2NjcgMCAwIDAgNDIuNjY2NjY2LTQyLjY2NjY2NlYzNDMuMzgxMzMzbC0xMTkuNDY2NjY2LTExOS40NjY2NjZhOC41MzMzMzMgOC41MzMzMzMgMCAwIDAtNS42MzItMi4wNDhIMjc3LjMzMzMzM3ogbTkyLjg0MjY2NyAxNzguNTZoLTM4LjkxMlYzNjQuMzczMzMzaDM4LjkxMnYzNi4wNTMzMzR6IG0tMzguOTEyIDE5Ljk2OGgzOC45MTJ2MTQyLjYzNDY2NmMwLjU5NzMzMyAxMy4zNTQ2NjctMC42NCAyNi43NTItMy42NjkzMzMgMzkuNzY1MzM0YTMyLjQyNjY2NyAzMi40MjY2NjcgMCAwIDEtMTQuMTIyNjY3IDE4LjA5MDY2NmMtOC4xMDY2NjcgNC42MDgtMTcuMzY1MzMzIDYuODI2NjY3LTI2LjcwOTMzMyA2LjQ4NTMzNC00LjE4MTMzMyAwLTguMzYyNjY3LTAuMzg0LTEyLjU0NC0xLjA2NjY2N0ExNjguMjc3MzMzIDE2OC4yNzczMzMgMCAwIDEgMjk4LjY2NjY2NyA2MjMuMjMybDYuODI2NjY2LTMzLjMyMjY2NyA1LjEyIDAuOTM4NjY3YzEuNTM2IDAuMjEzMzMzIDMuMDI5MzMzIDAuMzQxMzMzIDQuNTIyNjY3IDAuMzQxMzMzYTE2LjY0IDE2LjY0IDAgMCAwIDkuODEzMzMzLTIuNjAyNjY2IDEyLjIwMjY2NyAxMi4yMDI2NjcgMCAwIDAgNS4wMzQ2NjctNi4xNDRjMS4xOTQ2NjctNy4xNjggMS42MjEzMzMtMTQuNDIxMzMzIDEuMjgtMjEuNjMyVjQyMC4zOTQ2Njd6IG04NS42NzQ2NjcgMjAzLjIyMTMzM1Y0MjAuMzk0NjY3aDM2LjMwOTMzM3YyMS41ODkzMzNhNTQuNCA1NC40IDAgMCAxIDQ1Ljg2NjY2Ny0yNC45MTczMzNjMTYuODEwNjY3LTAuMTcwNjY3IDMyLjc2OCA3LjI1MzMzMyA0My41MiAyMC4wOTYgMTIuOCAxNS43ODY2NjcgMTkuMTU3MzMzIDM1Ljc1NDY2NyAxNy45MiA1Ni4wMjEzMzMgMS4yOCAyMC42NTA2NjctNS4xMiA0MS4wODgtMTguMDQ4IDU3LjMwMTMzM2E1Ni4yMzQ2NjcgNTYuMjM0NjY3IDAgMCAxLTQzLjY0OCAyMC40OCA1MC4xMzMzMzMgNTAuMTMzMzMzIDAgMCAxLTIyLjEwMTMzNC00Ljg2NGMtNy44OTMzMzMtNC4yNjY2NjctMTQuOTMzMzMzLTkuODk4NjY3LTIwLjkwNjY2Ni0xNi42NHY3NC4xNTQ2NjdoLTM4LjkxMnogbTQ3Ljk1NzMzMy0xNjQuNzM2YTQ5LjA2NjY2NyA0OS4wNjY2NjcgMCAwIDAtOS40NzIgMzIuNTk3MzMzYy0xLjAyNCAxMi45NzA2NjcgMi40MzIgMjUuOTQxMzMzIDkuODEzMzMzIDM2LjY5MzMzNGEzMC4wOCAzMC4wOCAwIDAgMCAyNC4wMjEzMzQgMTEuODE4NjY2IDI4LjAzMiAyOC4wMzIgMCAwIDAgMjIuNjEzMzMzLTEwLjgzNzMzM2M2LjkxMi0xMC41Mzg2NjcgMTAuMDY5MzMzLTIzLjEyNTMzMyA4Ljk2LTM1LjcxMmE1My4yNDggNTMuMjQ4IDAgMCAwLTkuMjU4NjY3LTM0LjM0NjY2NyAyOC43MTQ2NjcgMjguNzE0NjY3IDAgMCAwLTIzLjA0LTExLjI2NCAyOS44NjY2NjcgMjkuODY2NjY3IDAgMCAwLTIzLjYzNzMzMyAxMS4wNTA2Njd6IG0xMjkuOTIgMTIzLjIyMTMzM2gtMC4wNDI2NjdsMC4xMjgtNC43MzYgNDQuNTAxMzM0IDUuMjkwNjY3YTE1LjUzMDY2NyAxNS41MzA2NjcgMCAwIDAgNS4xMiAxMC43OTQ2NjcgMjkuNjUzMzMzIDI5LjY1MzMzMyAwIDAgMCAxNy40OTMzMzMgNC4xMzg2NjZjNy44OTMzMzMgMC40NjkzMzMgMTUuNzg2NjY3LTEuMTA5MzMzIDIyLjg2OTMzMy00LjYwOGExOC43NzMzMzMgMTguNzczMzMzIDAgMCAwIDcuNzIyNjY3LTkuODEzMzMzIDU4Ljg4IDU4Ljg4IDAgMCAwIDEuODM0NjY3LTE3Ljkydi0yMS41MDRhNTIuODY0IDUyLjg2NCAwIDAgMS00NC4wNzQ2NjcgMjMuODkzMzMzIDU0LjQgNTQuNCAwIDAgMS00Ny4wMTg2NjctMjUuMDQ1MzMzIDg1LjYzMiA4NS42MzIgMCAwIDEtMTMuNTY4LTQ5LjQwOCA4MS4xOTQ2NjcgODEuMTk0NjY3IDAgMCAxIDE3Ljc5Mi01Ni41NzYgNTcuNDcyIDU3LjQ3MiAwIDAgMSA0NC4yODgtMTkuNTQxMzMzYzE4LjA5MDY2Ny0wLjA4NTMzMyAzNC45ODY2NjcgOC45NiA0NS4wNTYgMjMuOTc4NjY2di0yMC42NTA2NjZoMzYuNTIyNjY3djEzMi4wOTZjMC41MTIgMTMuMTQxMzMzLTAuOTM4NjY3IDI2LjI0LTQuMjY2NjY3IDM4Ljk1NDY2Ni0yLjMwNCA3LjYzNzMzMy02LjQ0MjY2NyAxNC41OTItMTIuMDc0NjY2IDIwLjIyNC01Ljk3MzMzMyA1LjMzMzMzMy0xMy4wNTYgOS4zMDEzMzMtMjAuNzM2IDExLjU2MjY2N2ExMTAuOTMzMzMzIDExMC45MzMzMzMgMCAwIDEtMzIuODEwNjY3IDQuMTM4NjY3Yy0yNC45MTczMzMgMC00Mi42NjY2NjctNC4yNjY2NjctNTMuMDc3MzMzLTEyLjg4NTMzNGE0MC4xNDkzMzMgNDAuMTQ5MzMzIDAgMCAxLTE1LjY1ODY2Ny0zMi40MjY2NjZ6IG00My45ODkzMzMtMTI0LjMzMDY2NmE1MS4wMjkzMzMgNTEuMDI5MzMzIDAgMCAwLTkuMDAyNjY2IDMzLjE5NDY2NmMtMS4wMjQgMTIuMTE3MzMzIDIuMTc2IDI0LjIzNDY2NyA5LjA0NTMzMyAzNC4zMDRhMjguMTYgMjguMTYgMCAwIDAgMjIuNCAxMC45MjI2NjcgMzAuOTc2IDMwLjk3NiAwIDAgMCAyNC4xMDY2NjctMTEuMjIxMzMzIDQ4LjY0IDQ4LjY0IDAgMCAwIDkuODEzMzMzLTMzLjA2NjY2NyA1MS41NDEzMzMgNTEuNTQxMzMzIDAgMCAwLTkuMzg2NjY3LTMzLjk2MjY2NyAyOS45NTIgMjkuOTUyIDAgMCAwLTIzLjg5MzMzMy0xMS4wOTMzMzMgMjguNzU3MzMzIDI4Ljc1NzMzMyAwIDAgMC0yMy4wNCAxMC45MjI2Njd6Ii8+PC9zdmc+" parent="1" vertex="1">
          <mxGeometry x="311" y="-288.25" width="90" height="90" as="geometry" />
        </mxCell>
        <mxCell id="xXdTrD2StSvAxk5864eV-12" value="" style="shape=image;verticalLabelPosition=bottom;verticalAlign=top;imageAspect=0;aspect=fixed;image=data:image/svg+xml,PHN2ZyB4bWxuczp4bGluaz0iaHR0cDovL3d3dy53My5vcmcvMTk5OS94bGluayIgeG1sbnM9Imh0dHA6Ly93d3cudzMub3JnLzIwMDAvc3ZnIiBoZWlnaHQ9IjIwMCIgd2lkdGg9IjIwMCIgdmVyc2lvbj0iMS4xIiB2aWV3Qm94PSIwIDAgMTAyNCAxMDI0IiBjbGFzcz0iaWNvbiI+PGRlZnM+PHN0eWxlIHR5cGU9InRleHQvY3NzIj5AZm9udC1mYWNlIHsgZm9udC1mYW1pbHk6IGZlZWRiYWNrLWljb25mb250OyBzcmM6IHVybCgiLy9hdC5hbGljZG4uY29tL3QvZm9udF8xMDMxMTU4X3U2OXc4eWh4ZHUud29mZjI/dD0xNjMwMDMzNzU5OTQ0IikgZm9ybWF0KCJ3b2ZmMiIpLCB1cmwoIi8vYXQuYWxpY2RuLmNvbS90L2ZvbnRfMTAzMTE1OF91Njl3OHloeGR1LndvZmY/dD0xNjMwMDMzNzU5OTQ0IikgZm9ybWF0KCJ3b2ZmIiksIHVybCgiLy9hdC5hbGljZG4uY29tL3QvZm9udF8xMDMxMTU4X3U2OXc4eWh4ZHUudHRmP3Q9MTYzMDAzMzc1OTk0NCIpIGZvcm1hdCgidHJ1ZXR5cGUiKTsgfSYjeGE7PC9zdHlsZT48L2RlZnM+PHBhdGggZmlsbD0iIzRBOTE5QiIgZD0iTTI3Ny4zMzMzMzMgODUzLjMzMzMzM2E5NC4wMzczMzMgOTQuMDM3MzMzIDAgMCAxLTkzLjg2NjY2Ni05My44NjY2NjZWMjY0LjUzMzMzM0E5NC4wMzczMzMgOTQuMDM3MzMzIDAgMCAxIDI3Ny4zMzMzMzMgMTcwLjY2NjY2N2gzODYuOTAxMzM0YzE1Ljc4NjY2Ny0wLjEyOCAzMC45MzMzMzMgNi4wMTYgNDIuMTU0NjY2IDE3LjA2NjY2NmwxMjYuNDY0IDEyNi40NjRhMjUuNiAyNS42IDAgMCAxIDcuNjggMTguNjAyNjY3djQyNi42NjY2NjdhOTQuMDM3MzMzIDk0LjAzNzMzMyAwIDAgMS05My44NjY2NjYgOTMuODY2NjY2aC00NjkuMzMzMzM0eiBtMC02MzEuNDY2NjY2YTQyLjY2NjY2NyA0Mi42NjY2NjcgMCAwIDAtNDIuNjY2NjY2IDQyLjY2NjY2NnY0OTQuOTMzMzM0YTQyLjY2NjY2NyA0Mi42NjY2NjcgMCAwIDAgNDIuNjY2NjY2IDQyLjY2NjY2Nmg0NjkuMzMzMzM0YTQyLjY2NjY2NyA0Mi42NjY2NjcgMCAwIDAgNDIuNjY2NjY2LTQyLjY2NjY2NlYzNDMuMzgxMzMzbC0xMTkuNDY2NjY2LTExOS40NjY2NjZhOC41MzMzMzMgOC41MzMzMzMgMCAwIDAtNS42MzItMi4wNDhIMjc3LjMzMzMzM3ogbTkyLjg0MjY2NyAxNzguNTZoLTM4LjkxMlYzNjQuMzczMzMzaDM4LjkxMnYzNi4wNTMzMzR6IG0tMzguOTEyIDE5Ljk2OGgzOC45MTJ2MTQyLjYzNDY2NmMwLjU5NzMzMyAxMy4zNTQ2NjctMC42NCAyNi43NTItMy42NjkzMzMgMzkuNzY1MzM0YTMyLjQyNjY2NyAzMi40MjY2NjcgMCAwIDEtMTQuMTIyNjY3IDE4LjA5MDY2NmMtOC4xMDY2NjcgNC42MDgtMTcuMzY1MzMzIDYuODI2NjY3LTI2LjcwOTMzMyA2LjQ4NTMzNC00LjE4MTMzMyAwLTguMzYyNjY3LTAuMzg0LTEyLjU0NC0xLjA2NjY2N0ExNjguMjc3MzMzIDE2OC4yNzczMzMgMCAwIDEgMjk4LjY2NjY2NyA2MjMuMjMybDYuODI2NjY2LTMzLjMyMjY2NyA1LjEyIDAuOTM4NjY3YzEuNTM2IDAuMjEzMzMzIDMuMDI5MzMzIDAuMzQxMzMzIDQuNTIyNjY3IDAuMzQxMzMzYTE2LjY0IDE2LjY0IDAgMCAwIDkuODEzMzMzLTIuNjAyNjY2IDEyLjIwMjY2NyAxMi4yMDI2NjcgMCAwIDAgNS4wMzQ2NjctNi4xNDRjMS4xOTQ2NjctNy4xNjggMS42MjEzMzMtMTQuNDIxMzMzIDEuMjgtMjEuNjMyVjQyMC4zOTQ2Njd6IG04NS42NzQ2NjcgMjAzLjIyMTMzM1Y0MjAuMzk0NjY3aDM2LjMwOTMzM3YyMS41ODkzMzNhNTQuNCA1NC40IDAgMCAxIDQ1Ljg2NjY2Ny0yNC45MTczMzNjMTYuODEwNjY3LTAuMTcwNjY3IDMyLjc2OCA3LjI1MzMzMyA0My41MiAyMC4wOTYgMTIuOCAxNS43ODY2NjcgMTkuMTU3MzMzIDM1Ljc1NDY2NyAxNy45MiA1Ni4wMjEzMzMgMS4yOCAyMC42NTA2NjctNS4xMiA0MS4wODgtMTguMDQ4IDU3LjMwMTMzM2E1Ni4yMzQ2NjcgNTYuMjM0NjY3IDAgMCAxLTQzLjY0OCAyMC40OCA1MC4xMzMzMzMgNTAuMTMzMzMzIDAgMCAxLTIyLjEwMTMzNC00Ljg2NGMtNy44OTMzMzMtNC4yNjY2NjctMTQuOTMzMzMzLTkuODk4NjY3LTIwLjkwNjY2Ni0xNi42NHY3NC4xNTQ2NjdoLTM4LjkxMnogbTQ3Ljk1NzMzMy0xNjQuNzM2YTQ5LjA2NjY2NyA0OS4wNjY2NjcgMCAwIDAtOS40NzIgMzIuNTk3MzMzYy0xLjAyNCAxMi45NzA2NjcgMi40MzIgMjUuOTQxMzMzIDkuODEzMzMzIDM2LjY5MzMzNGEzMC4wOCAzMC4wOCAwIDAgMCAyNC4wMjEzMzQgMTEuODE4NjY2IDI4LjAzMiAyOC4wMzIgMCAwIDAgMjIuNjEzMzMzLTEwLjgzNzMzM2M2LjkxMi0xMC41Mzg2NjcgMTAuMDY5MzMzLTIzLjEyNTMzMyA4Ljk2LTM1LjcxMmE1My4yNDggNTMuMjQ4IDAgMCAwLTkuMjU4NjY3LTM0LjM0NjY2NyAyOC43MTQ2NjcgMjguNzE0NjY3IDAgMCAwLTIzLjA0LTExLjI2NCAyOS44NjY2NjcgMjkuODY2NjY3IDAgMCAwLTIzLjYzNzMzMyAxMS4wNTA2Njd6IG0xMjkuOTIgMTIzLjIyMTMzM2gtMC4wNDI2NjdsMC4xMjgtNC43MzYgNDQuNTAxMzM0IDUuMjkwNjY3YTE1LjUzMDY2NyAxNS41MzA2NjcgMCAwIDAgNS4xMiAxMC43OTQ2NjcgMjkuNjUzMzMzIDI5LjY1MzMzMyAwIDAgMCAxNy40OTMzMzMgNC4xMzg2NjZjNy44OTMzMzMgMC40NjkzMzMgMTUuNzg2NjY3LTEuMTA5MzMzIDIyLjg2OTMzMy00LjYwOGExOC43NzMzMzMgMTguNzczMzMzIDAgMCAwIDcuNzIyNjY3LTkuODEzMzMzIDU4Ljg4IDU4Ljg4IDAgMCAwIDEuODM0NjY3LTE3Ljkydi0yMS41MDRhNTIuODY0IDUyLjg2NCAwIDAgMS00NC4wNzQ2NjcgMjMuODkzMzMzIDU0LjQgNTQuNCAwIDAgMS00Ny4wMTg2NjctMjUuMDQ1MzMzIDg1LjYzMiA4NS42MzIgMCAwIDEtMTMuNTY4LTQ5LjQwOCA4MS4xOTQ2NjcgODEuMTk0NjY3IDAgMCAxIDE3Ljc5Mi01Ni41NzYgNTcuNDcyIDU3LjQ3MiAwIDAgMSA0NC4yODgtMTkuNTQxMzMzYzE4LjA5MDY2Ny0wLjA4NTMzMyAzNC45ODY2NjcgOC45NiA0NS4wNTYgMjMuOTc4NjY2di0yMC42NTA2NjZoMzYuNTIyNjY3djEzMi4wOTZjMC41MTIgMTMuMTQxMzMzLTAuOTM4NjY3IDI2LjI0LTQuMjY2NjY3IDM4Ljk1NDY2Ni0yLjMwNCA3LjYzNzMzMy02LjQ0MjY2NyAxNC41OTItMTIuMDc0NjY2IDIwLjIyNC01Ljk3MzMzMyA1LjMzMzMzMy0xMy4wNTYgOS4zMDEzMzMtMjAuNzM2IDExLjU2MjY2N2ExMTAuOTMzMzMzIDExMC45MzMzMzMgMCAwIDEtMzIuODEwNjY3IDQuMTM4NjY3Yy0yNC45MTczMzMgMC00Mi42NjY2NjctNC4yNjY2NjctNTMuMDc3MzMzLTEyLjg4NTMzNGE0MC4xNDkzMzMgNDAuMTQ5MzMzIDAgMCAxLTE1LjY1ODY2Ny0zMi40MjY2NjZ6IG00My45ODkzMzMtMTI0LjMzMDY2NmE1MS4wMjkzMzMgNTEuMDI5MzMzIDAgMCAwLTkuMDAyNjY2IDMzLjE5NDY2NmMtMS4wMjQgMTIuMTE3MzMzIDIuMTc2IDI0LjIzNDY2NyA5LjA0NTMzMyAzNC4zMDRhMjguMTYgMjguMTYgMCAwIDAgMjIuNCAxMC45MjI2NjcgMzAuOTc2IDMwLjk3NiAwIDAgMCAyNC4xMDY2NjctMTEuMjIxMzMzIDQ4LjY0IDQ4LjY0IDAgMCAwIDkuODEzMzMzLTMzLjA2NjY2NyA1MS41NDEzMzMgNTEuNTQxMzMzIDAgMCAwLTkuMzg2NjY3LTMzLjk2MjY2NyAyOS45NTIgMjkuOTUyIDAgMCAwLTIzLjg5MzMzMy0xMS4wOTMzMzMgMjguNzU3MzMzIDI4Ljc1NzMzMyAwIDAgMC0yMy4wNCAxMC45MjI2Njd6Ii8+PC9zdmc+" parent="1" vertex="1">
          <mxGeometry x="65.5" y="-454" width="51" height="51" as="geometry" />
        </mxCell>
        <mxCell id="xXdTrD2StSvAxk5864eV-13" value="" style="shape=image;verticalLabelPosition=bottom;verticalAlign=top;imageAspect=0;aspect=fixed;image=data:image/svg+xml,PHN2ZyB4bWxuczp4bGluaz0iaHR0cDovL3d3dy53My5vcmcvMTk5OS94bGluayIgeG1sbnM9Imh0dHA6Ly93d3cudzMub3JnLzIwMDAvc3ZnIiBoZWlnaHQ9IjIwMCIgd2lkdGg9IjIwMCIgdmVyc2lvbj0iMS4xIiB2aWV3Qm94PSIwIDAgMTAyNCAxMDI0IiBjbGFzcz0iaWNvbiI+PGRlZnM+PHN0eWxlIHR5cGU9InRleHQvY3NzIj5AZm9udC1mYWNlIHsgZm9udC1mYW1pbHk6IGZlZWRiYWNrLWljb25mb250OyBzcmM6IHVybCgiLy9hdC5hbGljZG4uY29tL3QvZm9udF8xMDMxMTU4X3U2OXc4eWh4ZHUud29mZjI/dD0xNjMwMDMzNzU5OTQ0IikgZm9ybWF0KCJ3b2ZmMiIpLCB1cmwoIi8vYXQuYWxpY2RuLmNvbS90L2ZvbnRfMTAzMTE1OF91Njl3OHloeGR1LndvZmY/dD0xNjMwMDMzNzU5OTQ0IikgZm9ybWF0KCJ3b2ZmIiksIHVybCgiLy9hdC5hbGljZG4uY29tL3QvZm9udF8xMDMxMTU4X3U2OXc4eWh4ZHUudHRmP3Q9MTYzMDAzMzc1OTk0NCIpIGZvcm1hdCgidHJ1ZXR5cGUiKTsgfSYjeGE7PC9zdHlsZT48L2RlZnM+PHBhdGggZmlsbD0iIzRBOTE5QiIgZD0iTTI3Ny4zMzMzMzMgODUzLjMzMzMzM2E5NC4wMzczMzMgOTQuMDM3MzMzIDAgMCAxLTkzLjg2NjY2Ni05My44NjY2NjZWMjY0LjUzMzMzM0E5NC4wMzczMzMgOTQuMDM3MzMzIDAgMCAxIDI3Ny4zMzMzMzMgMTcwLjY2NjY2N2gzODYuOTAxMzM0YzE1Ljc4NjY2Ny0wLjEyOCAzMC45MzMzMzMgNi4wMTYgNDIuMTU0NjY2IDE3LjA2NjY2NmwxMjYuNDY0IDEyNi40NjRhMjUuNiAyNS42IDAgMCAxIDcuNjggMTguNjAyNjY3djQyNi42NjY2NjdhOTQuMDM3MzMzIDk0LjAzNzMzMyAwIDAgMS05My44NjY2NjYgOTMuODY2NjY2aC00NjkuMzMzMzM0eiBtMC02MzEuNDY2NjY2YTQyLjY2NjY2NyA0Mi42NjY2NjcgMCAwIDAtNDIuNjY2NjY2IDQyLjY2NjY2NnY0OTQuOTMzMzM0YTQyLjY2NjY2NyA0Mi42NjY2NjcgMCAwIDAgNDIuNjY2NjY2IDQyLjY2NjY2Nmg0NjkuMzMzMzM0YTQyLjY2NjY2NyA0Mi42NjY2NjcgMCAwIDAgNDIuNjY2NjY2LTQyLjY2NjY2NlYzNDMuMzgxMzMzbC0xMTkuNDY2NjY2LTExOS40NjY2NjZhOC41MzMzMzMgOC41MzMzMzMgMCAwIDAtNS42MzItMi4wNDhIMjc3LjMzMzMzM3ogbTkyLjg0MjY2NyAxNzguNTZoLTM4LjkxMlYzNjQuMzczMzMzaDM4LjkxMnYzNi4wNTMzMzR6IG0tMzguOTEyIDE5Ljk2OGgzOC45MTJ2MTQyLjYzNDY2NmMwLjU5NzMzMyAxMy4zNTQ2NjctMC42NCAyNi43NTItMy42NjkzMzMgMzkuNzY1MzM0YTMyLjQyNjY2NyAzMi40MjY2NjcgMCAwIDEtMTQuMTIyNjY3IDE4LjA5MDY2NmMtOC4xMDY2NjcgNC42MDgtMTcuMzY1MzMzIDYuODI2NjY3LTI2LjcwOTMzMyA2LjQ4NTMzNC00LjE4MTMzMyAwLTguMzYyNjY3LTAuMzg0LTEyLjU0NC0xLjA2NjY2N0ExNjguMjc3MzMzIDE2OC4yNzczMzMgMCAwIDEgMjk4LjY2NjY2NyA2MjMuMjMybDYuODI2NjY2LTMzLjMyMjY2NyA1LjEyIDAuOTM4NjY3YzEuNTM2IDAuMjEzMzMzIDMuMDI5MzMzIDAuMzQxMzMzIDQuNTIyNjY3IDAuMzQxMzMzYTE2LjY0IDE2LjY0IDAgMCAwIDkuODEzMzMzLTIuNjAyNjY2IDEyLjIwMjY2NyAxMi4yMDI2NjcgMCAwIDAgNS4wMzQ2NjctNi4xNDRjMS4xOTQ2NjctNy4xNjggMS42MjEzMzMtMTQuNDIxMzMzIDEuMjgtMjEuNjMyVjQyMC4zOTQ2Njd6IG04NS42NzQ2NjcgMjAzLjIyMTMzM1Y0MjAuMzk0NjY3aDM2LjMwOTMzM3YyMS41ODkzMzNhNTQuNCA1NC40IDAgMCAxIDQ1Ljg2NjY2Ny0yNC45MTczMzNjMTYuODEwNjY3LTAuMTcwNjY3IDMyLjc2OCA3LjI1MzMzMyA0My41MiAyMC4wOTYgMTIuOCAxNS43ODY2NjcgMTkuMTU3MzMzIDM1Ljc1NDY2NyAxNy45MiA1Ni4wMjEzMzMgMS4yOCAyMC42NTA2NjctNS4xMiA0MS4wODgtMTguMDQ4IDU3LjMwMTMzM2E1Ni4yMzQ2NjcgNTYuMjM0NjY3IDAgMCAxLTQzLjY0OCAyMC40OCA1MC4xMzMzMzMgNTAuMTMzMzMzIDAgMCAxLTIyLjEwMTMzNC00Ljg2NGMtNy44OTMzMzMtNC4yNjY2NjctMTQuOTMzMzMzLTkuODk4NjY3LTIwLjkwNjY2Ni0xNi42NHY3NC4xNTQ2NjdoLTM4LjkxMnogbTQ3Ljk1NzMzMy0xNjQuNzM2YTQ5LjA2NjY2NyA0OS4wNjY2NjcgMCAwIDAtOS40NzIgMzIuNTk3MzMzYy0xLjAyNCAxMi45NzA2NjcgMi40MzIgMjUuOTQxMzMzIDkuODEzMzMzIDM2LjY5MzMzNGEzMC4wOCAzMC4wOCAwIDAgMCAyNC4wMjEzMzQgMTEuODE4NjY2IDI4LjAzMiAyOC4wMzIgMCAwIDAgMjIuNjEzMzMzLTEwLjgzNzMzM2M2LjkxMi0xMC41Mzg2NjcgMTAuMDY5MzMzLTIzLjEyNTMzMyA4Ljk2LTM1LjcxMmE1My4yNDggNTMuMjQ4IDAgMCAwLTkuMjU4NjY3LTM0LjM0NjY2NyAyOC43MTQ2NjcgMjguNzE0NjY3IDAgMCAwLTIzLjA0LTExLjI2NCAyOS44NjY2NjcgMjkuODY2NjY3IDAgMCAwLTIzLjYzNzMzMyAxMS4wNTA2Njd6IG0xMjkuOTIgMTIzLjIyMTMzM2gtMC4wNDI2NjdsMC4xMjgtNC43MzYgNDQuNTAxMzM0IDUuMjkwNjY3YTE1LjUzMDY2NyAxNS41MzA2NjcgMCAwIDAgNS4xMiAxMC43OTQ2NjcgMjkuNjUzMzMzIDI5LjY1MzMzMyAwIDAgMCAxNy40OTMzMzMgNC4xMzg2NjZjNy44OTMzMzMgMC40NjkzMzMgMTUuNzg2NjY3LTEuMTA5MzMzIDIyLjg2OTMzMy00LjYwOGExOC43NzMzMzMgMTguNzczMzMzIDAgMCAwIDcuNzIyNjY3LTkuODEzMzMzIDU4Ljg4IDU4Ljg4IDAgMCAwIDEuODM0NjY3LTE3Ljkydi0yMS41MDRhNTIuODY0IDUyLjg2NCAwIDAgMS00NC4wNzQ2NjcgMjMuODkzMzMzIDU0LjQgNTQuNCAwIDAgMS00Ny4wMTg2NjctMjUuMDQ1MzMzIDg1LjYzMiA4NS42MzIgMCAwIDEtMTMuNTY4LTQ5LjQwOCA4MS4xOTQ2NjcgODEuMTk0NjY3IDAgMCAxIDE3Ljc5Mi01Ni41NzYgNTcuNDcyIDU3LjQ3MiAwIDAgMSA0NC4yODgtMTkuNTQxMzMzYzE4LjA5MDY2Ny0wLjA4NTMzMyAzNC45ODY2NjcgOC45NiA0NS4wNTYgMjMuOTc4NjY2di0yMC42NTA2NjZoMzYuNTIyNjY3djEzMi4wOTZjMC41MTIgMTMuMTQxMzMzLTAuOTM4NjY3IDI2LjI0LTQuMjY2NjY3IDM4Ljk1NDY2Ni0yLjMwNCA3LjYzNzMzMy02LjQ0MjY2NyAxNC41OTItMTIuMDc0NjY2IDIwLjIyNC01Ljk3MzMzMyA1LjMzMzMzMy0xMy4wNTYgOS4zMDEzMzMtMjAuNzM2IDExLjU2MjY2N2ExMTAuOTMzMzMzIDExMC45MzMzMzMgMCAwIDEtMzIuODEwNjY3IDQuMTM4NjY3Yy0yNC45MTczMzMgMC00Mi42NjY2NjctNC4yNjY2NjctNTMuMDc3MzMzLTEyLjg4NTMzNGE0MC4xNDkzMzMgNDAuMTQ5MzMzIDAgMCAxLTE1LjY1ODY2Ny0zMi40MjY2NjZ6IG00My45ODkzMzMtMTI0LjMzMDY2NmE1MS4wMjkzMzMgNTEuMDI5MzMzIDAgMCAwLTkuMDAyNjY2IDMzLjE5NDY2NmMtMS4wMjQgMTIuMTE3MzMzIDIuMTc2IDI0LjIzNDY2NyA5LjA0NTMzMyAzNC4zMDRhMjguMTYgMjguMTYgMCAwIDAgMjIuNCAxMC45MjI2NjcgMzAuOTc2IDMwLjk3NiAwIDAgMCAyNC4xMDY2NjctMTEuMjIxMzMzIDQ4LjY0IDQ4LjY0IDAgMCAwIDkuODEzMzMzLTMzLjA2NjY2NyA1MS41NDEzMzMgNTEuNTQxMzMzIDAgMCAwLTkuMzg2NjY3LTMzLjk2MjY2NyAyOS45NTIgMjkuOTUyIDAgMCAwLTIzLjg5MzMzMy0xMS4wOTMzMzMgMjguNzU3MzMzIDI4Ljc1NzMzMyAwIDAgMC0yMy4wNCAxMC45MjI2Njd6Ii8+PC9zdmc+" parent="1" vertex="1">
          <mxGeometry x="100.5" y="-454" width="51" height="51" as="geometry" />
        </mxCell>
        <mxCell id="xXdTrD2StSvAxk5864eV-14" value="" style="shape=image;verticalLabelPosition=bottom;verticalAlign=top;imageAspect=0;aspect=fixed;image=data:image/svg+xml,PHN2ZyB4bWxuczp4bGluaz0iaHR0cDovL3d3dy53My5vcmcvMTk5OS94bGluayIgeG1sbnM9Imh0dHA6Ly93d3cudzMub3JnLzIwMDAvc3ZnIiBoZWlnaHQ9IjIwMCIgd2lkdGg9IjIwMCIgdmVyc2lvbj0iMS4xIiB2aWV3Qm94PSIwIDAgMTAyNCAxMDI0IiBjbGFzcz0iaWNvbiI+PGRlZnM+PHN0eWxlIHR5cGU9InRleHQvY3NzIj5AZm9udC1mYWNlIHsgZm9udC1mYW1pbHk6IGZlZWRiYWNrLWljb25mb250OyBzcmM6IHVybCgiLy9hdC5hbGljZG4uY29tL3QvZm9udF8xMDMxMTU4X3U2OXc4eWh4ZHUud29mZjI/dD0xNjMwMDMzNzU5OTQ0IikgZm9ybWF0KCJ3b2ZmMiIpLCB1cmwoIi8vYXQuYWxpY2RuLmNvbS90L2ZvbnRfMTAzMTE1OF91Njl3OHloeGR1LndvZmY/dD0xNjMwMDMzNzU5OTQ0IikgZm9ybWF0KCJ3b2ZmIiksIHVybCgiLy9hdC5hbGljZG4uY29tL3QvZm9udF8xMDMxMTU4X3U2OXc4eWh4ZHUudHRmP3Q9MTYzMDAzMzc1OTk0NCIpIGZvcm1hdCgidHJ1ZXR5cGUiKTsgfSYjeGE7PC9zdHlsZT48L2RlZnM+PHBhdGggZmlsbD0iIzRBOTE5QiIgZD0iTTI3Ny4zMzMzMzMgODUzLjMzMzMzM2E5NC4wMzczMzMgOTQuMDM3MzMzIDAgMCAxLTkzLjg2NjY2Ni05My44NjY2NjZWMjY0LjUzMzMzM0E5NC4wMzczMzMgOTQuMDM3MzMzIDAgMCAxIDI3Ny4zMzMzMzMgMTcwLjY2NjY2N2gzODYuOTAxMzM0YzE1Ljc4NjY2Ny0wLjEyOCAzMC45MzMzMzMgNi4wMTYgNDIuMTU0NjY2IDE3LjA2NjY2NmwxMjYuNDY0IDEyNi40NjRhMjUuNiAyNS42IDAgMCAxIDcuNjggMTguNjAyNjY3djQyNi42NjY2NjdhOTQuMDM3MzMzIDk0LjAzNzMzMyAwIDAgMS05My44NjY2NjYgOTMuODY2NjY2aC00NjkuMzMzMzM0eiBtMC02MzEuNDY2NjY2YTQyLjY2NjY2NyA0Mi42NjY2NjcgMCAwIDAtNDIuNjY2NjY2IDQyLjY2NjY2NnY0OTQuOTMzMzM0YTQyLjY2NjY2NyA0Mi42NjY2NjcgMCAwIDAgNDIuNjY2NjY2IDQyLjY2NjY2Nmg0NjkuMzMzMzM0YTQyLjY2NjY2NyA0Mi42NjY2NjcgMCAwIDAgNDIuNjY2NjY2LTQyLjY2NjY2NlYzNDMuMzgxMzMzbC0xMTkuNDY2NjY2LTExOS40NjY2NjZhOC41MzMzMzMgOC41MzMzMzMgMCAwIDAtNS42MzItMi4wNDhIMjc3LjMzMzMzM3ogbTkyLjg0MjY2NyAxNzguNTZoLTM4LjkxMlYzNjQuMzczMzMzaDM4LjkxMnYzNi4wNTMzMzR6IG0tMzguOTEyIDE5Ljk2OGgzOC45MTJ2MTQyLjYzNDY2NmMwLjU5NzMzMyAxMy4zNTQ2NjctMC42NCAyNi43NTItMy42NjkzMzMgMzkuNzY1MzM0YTMyLjQyNjY2NyAzMi40MjY2NjcgMCAwIDEtMTQuMTIyNjY3IDE4LjA5MDY2NmMtOC4xMDY2NjcgNC42MDgtMTcuMzY1MzMzIDYuODI2NjY3LTI2LjcwOTMzMyA2LjQ4NTMzNC00LjE4MTMzMyAwLTguMzYyNjY3LTAuMzg0LTEyLjU0NC0xLjA2NjY2N0ExNjguMjc3MzMzIDE2OC4yNzczMzMgMCAwIDEgMjk4LjY2NjY2NyA2MjMuMjMybDYuODI2NjY2LTMzLjMyMjY2NyA1LjEyIDAuOTM4NjY3YzEuNTM2IDAuMjEzMzMzIDMuMDI5MzMzIDAuMzQxMzMzIDQuNTIyNjY3IDAuMzQxMzMzYTE2LjY0IDE2LjY0IDAgMCAwIDkuODEzMzMzLTIuNjAyNjY2IDEyLjIwMjY2NyAxMi4yMDI2NjcgMCAwIDAgNS4wMzQ2NjctNi4xNDRjMS4xOTQ2NjctNy4xNjggMS42MjEzMzMtMTQuNDIxMzMzIDEuMjgtMjEuNjMyVjQyMC4zOTQ2Njd6IG04NS42NzQ2NjcgMjAzLjIyMTMzM1Y0MjAuMzk0NjY3aDM2LjMwOTMzM3YyMS41ODkzMzNhNTQuNCA1NC40IDAgMCAxIDQ1Ljg2NjY2Ny0yNC45MTczMzNjMTYuODEwNjY3LTAuMTcwNjY3IDMyLjc2OCA3LjI1MzMzMyA0My41MiAyMC4wOTYgMTIuOCAxNS43ODY2NjcgMTkuMTU3MzMzIDM1Ljc1NDY2NyAxNy45MiA1Ni4wMjEzMzMgMS4yOCAyMC42NTA2NjctNS4xMiA0MS4wODgtMTguMDQ4IDU3LjMwMTMzM2E1Ni4yMzQ2NjcgNTYuMjM0NjY3IDAgMCAxLTQzLjY0OCAyMC40OCA1MC4xMzMzMzMgNTAuMTMzMzMzIDAgMCAxLTIyLjEwMTMzNC00Ljg2NGMtNy44OTMzMzMtNC4yNjY2NjctMTQuOTMzMzMzLTkuODk4NjY3LTIwLjkwNjY2Ni0xNi42NHY3NC4xNTQ2NjdoLTM4LjkxMnogbTQ3Ljk1NzMzMy0xNjQuNzM2YTQ5LjA2NjY2NyA0OS4wNjY2NjcgMCAwIDAtOS40NzIgMzIuNTk3MzMzYy0xLjAyNCAxMi45NzA2NjcgMi40MzIgMjUuOTQxMzMzIDkuODEzMzMzIDM2LjY5MzMzNGEzMC4wOCAzMC4wOCAwIDAgMCAyNC4wMjEzMzQgMTEuODE4NjY2IDI4LjAzMiAyOC4wMzIgMCAwIDAgMjIuNjEzMzMzLTEwLjgzNzMzM2M2LjkxMi0xMC41Mzg2NjcgMTAuMDY5MzMzLTIzLjEyNTMzMyA4Ljk2LTM1LjcxMmE1My4yNDggNTMuMjQ4IDAgMCAwLTkuMjU4NjY3LTM0LjM0NjY2NyAyOC43MTQ2NjcgMjguNzE0NjY3IDAgMCAwLTIzLjA0LTExLjI2NCAyOS44NjY2NjcgMjkuODY2NjY3IDAgMCAwLTIzLjYzNzMzMyAxMS4wNTA2Njd6IG0xMjkuOTIgMTIzLjIyMTMzM2gtMC4wNDI2NjdsMC4xMjgtNC43MzYgNDQuNTAxMzM0IDUuMjkwNjY3YTE1LjUzMDY2NyAxNS41MzA2NjcgMCAwIDAgNS4xMiAxMC43OTQ2NjcgMjkuNjUzMzMzIDI5LjY1MzMzMyAwIDAgMCAxNy40OTMzMzMgNC4xMzg2NjZjNy44OTMzMzMgMC40NjkzMzMgMTUuNzg2NjY3LTEuMTA5MzMzIDIyLjg2OTMzMy00LjYwOGExOC43NzMzMzMgMTguNzczMzMzIDAgMCAwIDcuNzIyNjY3LTkuODEzMzMzIDU4Ljg4IDU4Ljg4IDAgMCAwIDEuODM0NjY3LTE3Ljkydi0yMS41MDRhNTIuODY0IDUyLjg2NCAwIDAgMS00NC4wNzQ2NjcgMjMuODkzMzMzIDU0LjQgNTQuNCAwIDAgMS00Ny4wMTg2NjctMjUuMDQ1MzMzIDg1LjYzMiA4NS42MzIgMCAwIDEtMTMuNTY4LTQ5LjQwOCA4MS4xOTQ2NjcgODEuMTk0NjY3IDAgMCAxIDE3Ljc5Mi01Ni41NzYgNTcuNDcyIDU3LjQ3MiAwIDAgMSA0NC4yODgtMTkuNTQxMzMzYzE4LjA5MDY2Ny0wLjA4NTMzMyAzNC45ODY2NjcgOC45NiA0NS4wNTYgMjMuOTc4NjY2di0yMC42NTA2NjZoMzYuNTIyNjY3djEzMi4wOTZjMC41MTIgMTMuMTQxMzMzLTAuOTM4NjY3IDI2LjI0LTQuMjY2NjY3IDM4Ljk1NDY2Ni0yLjMwNCA3LjYzNzMzMy02LjQ0MjY2NyAxNC41OTItMTIuMDc0NjY2IDIwLjIyNC01Ljk3MzMzMyA1LjMzMzMzMy0xMy4wNTYgOS4zMDEzMzMtMjAuNzM2IDExLjU2MjY2N2ExMTAuOTMzMzMzIDExMC45MzMzMzMgMCAwIDEtMzIuODEwNjY3IDQuMTM4NjY3Yy0yNC45MTczMzMgMC00Mi42NjY2NjctNC4yNjY2NjctNTMuMDc3MzMzLTEyLjg4NTMzNGE0MC4xNDkzMzMgNDAuMTQ5MzMzIDAgMCAxLTE1LjY1ODY2Ny0zMi40MjY2NjZ6IG00My45ODkzMzMtMTI0LjMzMDY2NmE1MS4wMjkzMzMgNTEuMDI5MzMzIDAgMCAwLTkuMDAyNjY2IDMzLjE5NDY2NmMtMS4wMjQgMTIuMTE3MzMzIDIuMTc2IDI0LjIzNDY2NyA5LjA0NTMzMyAzNC4zMDRhMjguMTYgMjguMTYgMCAwIDAgMjIuNCAxMC45MjI2NjcgMzAuOTc2IDMwLjk3NiAwIDAgMCAyNC4xMDY2NjctMTEuMjIxMzMzIDQ4LjY0IDQ4LjY0IDAgMCAwIDkuODEzMzMzLTMzLjA2NjY2NyA1MS41NDEzMzMgNTEuNTQxMzMzIDAgMCAwLTkuMzg2NjY3LTMzLjk2MjY2NyAyOS45NTIgMjkuOTUyIDAgMCAwLTIzLjg5MzMzMy0xMS4wOTMzMzMgMjguNzU3MzMzIDI4Ljc1NzMzMyAwIDAgMC0yMy4wNCAxMC45MjI2Njd6Ii8+PC9zdmc+" parent="1" vertex="1">
          <mxGeometry x="135.5" y="-454" width="51" height="51" as="geometry" />
        </mxCell>
        <mxCell id="xXdTrD2StSvAxk5864eV-15" value="&lt;font style=&quot;font-size: 20px;&quot; color=&quot;#ffffff&quot;&gt;后置逻辑&lt;/font&gt;" style="rounded=1;whiteSpace=wrap;html=1;fillColor=#4A919B;strokeColor=none;" parent="1" vertex="1">
          <mxGeometry x="401" y="-275.5" width="120" height="60" as="geometry" />
        </mxCell>
      </root>
    </mxGraphModel>
  </diagram>
</mxfile>
